:SAMPLES-PER-SECOND 30
:FULLY-SPECIFIED
:DEGREES
17
root  75.9699 40.2067 26.2704 -60.5298 -89.1795 61.412
RightUpLeg  -0.625488 -7.79341 -4.63571
RightLeg  7.23185 -4.02561 1.86664
RightFoot  -9.09626 -0.0682454 0.358072
RightToes  2.32829e-010 0 -3.6325e-017
Spine  4.24241 -2.51171 9.46362
Spine1  -1.26435 0.169417 -15.0922
HEad  -75.6471 13.5391 0.282614
LeftShoulder1  2.81417 -4.87109 -27.7871
LeftArm  -38.5514 14.4523 5.00764
LeftForeArm  -13.917 -26.6122 -5.98599
LeftHand  -0.244104 0.0205437 5.32207
RightShoulder  1.66715 2.07804 23.5181
RightArm  -16.5978 -5.2128 1.95889
RightForeArm  -10.5059 12.4447 5.6666
RightHand  -1.38025 3.3725 -18.3865
LeftUpLeg  1.16909 6.47083 4.17016
LeftLeg  2.18078 12.7053 -4.60855
LeftFoot  -4.41409 0.084492 -0.956349
LeftToes  -2.63786e-011 3.77076e-011 -4.2586e-012
18
root  75.818 40.1872 26.1386 -72.3916 -89.1389 73.1922
RightUpLeg  -0.516046 -8.04527 -4.61651
RightLeg  7.90739 -3.58036 1.79597
RightFoot  -10.3631 -0.0780437 0.946356
RightToes  2.32829e-010 0 -3.6325e-017
Spine  6.91017 -2.47284 7.65609
Spine1  -5.35071 -0.688934 -11.3871
HEad  -76.753 -27.3213 -12.1038
LeftShoulder1  3.31983 -5.75536 -29.7257
LeftArm  -34.0281 17.2573 -0.323263
LeftForeArm  -16.4419 -25.5938 -6.2518
LeftHand  -0.244104 0.0205437 5.32207
RightShoulder  2.50525 4.07817 26.9929
RightArm  -11.3574 -8.67485 1.97831
RightForeArm  -10.6115 16.0647 5.86287
RightHand  -1.1894 2.70889 -17.157
LeftUpLeg  1.45689 6.4207 4.2761
LeftLeg  2.36976 12.6948 -4.45309
LeftFoot  -4.88321 0.12096 -1.62296
LeftToes  -2.63786e-011 3.77076e-011 -4.2586e-012
19
root  75.6371 40.1507 25.9711 -98.5358 -89.074 99.4307
RightUpLeg  -0.637577 -8.10282 -4.41887
RightLeg  8.63203 -3.03442 1.61133
RightFoot  -11.6769 -0.0746508 1.56306
RightToes  2.32829e-010 0 -3.6325e-017
Spine  6.11937 -1.71463 5.95367
Spine1  -4.16338 -0.489383 -7.45561
HEad  -72.5372 -16.2208 -26.6709
LeftShoulder1  4.17038 -7.15306 -32.9863
LeftArm  -31.9418 16.9827 -5.54846
LeftForeArm  -20.6203 -20.8385 -5.00265
LeftHand  -0.244104 0.0205437 5.32207
RightShoulder  3.02707 5.11237 29.1991
RightArm  -8.69742 -10.7743 4.49025
RightForeArm  -9.13449 17.7907 5.66553
RightHand  -0.967263 1.82892 -15.6628
LeftUpLeg  1.41456 6.44856 4.45327
LeftLeg  3.00905 13.1289 -4.19945
LeftFoot  -5.39098 0.148392 -2.22488
LeftToes  -2.63786e-011 3.77076e-011 -4.2586e-012
20
root  75.4178 40.0908 25.7723 -129.293 -88.7559 130.032
RightUpLeg  -0.546992 -8.00834 -4.11536
RightLeg  9.45315 -2.36001 1.36537
RightFoot  -12.8324 -0.0621691 1.92735
RightToes  2.32829e-010 0 -3.6325e-017
Spine  1.62542 -0.555223 6.86604
Spine1  3.14822 1.03664 -7.9382
HEad  -77.3391 -8.35636 -35.0231
LeftShoulder1  5.13928 -8.43662 -36.95
LeftArm  -37.4795 13.0041 -12.1259
LeftForeArm  -21.0615 -19.2723 -4.44339
LeftHand  -0.244104 0.0205437 5.32207
RightShoulder  3.12616 4.89173 31.2426
RightArm  -11.1359 -11.3623 10.5753
RightForeArm  -5.16825 16.8589 5.45109
RightHand  -0.765333 1.02634 -13.9426
LeftUpLeg  1.4092 6.77639 4.76509
LeftLeg  4.42524 13.5057 -3.7559
LeftFoot  -6.3818 0.154803 -2.69024
LeftToes  -2.63786e-011 3.77076e-011 -4.2586e-012
21
root  75.1656 39.9724 25.5678 -147.81 -88.3673 148.033
RightUpLeg  -0.134772 -8.16071 -3.84082
RightLeg  10.5846 -1.47831 1.30686
RightFoot  -13.9928 -0.0481157 2.01881
RightToes  2.32829e-010 0 -3.6325e-017
Spine  1.55793 -0.415155 6.81125
Spine1  4.04196 0.954777 -6.64654
HEad  -81.4562 -6.40804 -48.8369
LeftShoulder1  5.44906 -8.48257 -39.2356
LeftArm  -25.9803 10.777 -12.6078
LeftForeArm  -22.0927 -11.3049 -1.35154
LeftHand  -0.244104 0.0205437 5.32207
RightShoulder  3.98221 6.15678 35.2187
RightArm  -12.1725 -11.2626 13.8084
RightForeArm  -1.80081 13.6478 5.60033
RightHand  -0.581118 0.206554 -12.1112
LeftUpLeg  1.1351 8.66108 5.1477
LeftLeg  7.36341 11.8066 -2.51215
LeftFoot  -8.21082 0.152766 -3.91026
LeftToes  -2.63786e-011 3.77076e-011 -4.2586e-012
22
root  74.9106 39.7577 25.3909 -164.226 -88.5492 163.842
RightUpLeg  0.295305 -8.91457 -3.54964
RightLeg  12.206 -0.626257 1.59008
RightFoot  -15.4919 -0.0261313 2.16433
RightToes  2.32829e-010 0 -3.6325e-017
Spine  -0.8369 -0.563074 4.7997
Spine1  8.92699 -0.140492 -1.7309
HEad  -70.8473 -11.9596 -59.7644
LeftShoulder1  5.8053 -7.93629 -44.1204
LeftArm  -38.6673 8.91894 -13.8789
LeftForeArm  5.29823 -4.84473 5.68814
LeftHand  -0.244104 0.0205437 5.32207
RightShoulder  5.1964 8.22898 38.242
RightArm  -14.7803 -9.01406 17.2579
RightForeArm  0.189798 8.42363 5.48188
RightHand  -0.398646 -0.894709 -10.2285
LeftUpLeg  -0.464161 12.5723 5.38096
LeftLeg  12.7109 7.61981 0.212421
LeftFoot  -10.2649 0.118658 -5.9796
LeftToes  -2.63786e-011 3.77076e-011 -4.2586e-012
23
root  74.6725 39.4962 25.2497 -168.728 -89.4938 167.87
RightUpLeg  0.600011 -10.0464 -3.24534
RightLeg  14.0063 -0.250431 1.9954
RightFoot  -17.1172 0.00400686 2.38016
RightToes  2.32829e-010 0 -3.6325e-017
Spine  -0.343949 -0.805921 6.57778
Spine1  9.55339 -0.256634 -1.81238
HEad  -30.9253 -21.7533 -46.6504
LeftShoulder1  5.49533 -7.56355 -43.1911
LeftArm  -35.1545 6.34196 -21.7283
LeftForeArm  0.34149 1.42487 5.77253
LeftHand  -0.244104 0.0205437 5.32207
RightShoulder  6.13416 9.28087 41.7434
RightArm  -15.7116 -8.91208 21.0924
RightForeArm  -0.155316 4.52104 4.91175
RightHand  -0.232313 -2.26603 -8.34617
LeftUpLeg  -3.78762 12.6519 5.21167
LeftLeg  20.2725 7.53959 3.70918
LeftFoot  -10.9876 0.0884778 -6.98214
LeftToes  -2.63786e-011 3.77076e-011 -4.2586e-012
24
root  74.414 39.2945 25.1298 49.6305 -89.1287 -50.8877
RightUpLeg  1.04007 -10.9096 -2.92814
RightLeg  15.4009 -0.605419 2.09436
RightFoot  -18.2857 0.0155462 2.30062
RightToes  2.32829e-010 0 -3.6325e-017
Spine  0.465796 -0.891247 7.95004
Spine1  9.9316 -0.258569 -1.60935
HEad  -33.7806 -27.1132 -32.8308
LeftShoulder1  6.74189 -9.34444 -45.423
LeftArm  -33.009 5.24038 -25.8863
LeftForeArm  -5.96425 5.06332 5.59362
LeftHand  -0.244104 0.0205437 5.32207
RightShoulder  6.89835 10.0293 44.5023
RightArm  -16.5128 -8.77925 24.9214
RightForeArm  0.0305556 1.57749 4.4686
RightHand  -0.149746 -2.94506 -6.57571
LeftUpLeg  -8.07111 8.51656 4.95998
LeftLeg  29.2394 11.4109 7.14513
LeftFoot  -9.95352 0.123219 -5.52732
LeftToes  -2.63786e-011 3.77076e-011 -4.2586e-012
25
root  74.0676 39.2041 25.0263 14.9825 -88.2319 -16.5047
RightUpLeg  1.68656 -11.1776 -2.80998
RightLeg  16.1229 -1.36422 1.78816
RightFoot  -18.9139 -0.000544825 1.92631
RightToes  2.32829e-010 0 -3.6325e-017
Spine  1.26535 -0.805043 8.41762
Spine1  10.1272 -0.164252 -1.28201
HEad  -37.0366 -19.9462 -19.0696
LeftShoulder1  9.34261 -12.6703 -50.5385
LeftArm  -29.4071 6.90442 -26.1315
LeftForeArm  -12.4758 4.96393 3.55586
LeftHand  -0.244104 0.0205437 5.32207
RightShoulder  7.49204 10.5451 46.6336
RightArm  -16.4513 -8.27986 28.4315
RightForeArm  2.14434 0.25639 4.3441
RightHand  -0.101865 -3.39964 -5.01684
LeftUpLeg  -12.4858 6.79895 3.9664
LeftLeg  37.0129 11.2601 9.28114
LeftFoot  -8.75976 0.125605 -3.15417
LeftToes  -2.63786e-011 3.77076e-011 -4.2586e-012
26
root  73.6064 39.1983 24.9625 -2.46201 -87.7146 1.01205
RightUpLeg  2.43651 -11.0429 -3.21675
RightLeg  16.0882 -2.00191 1.44053
RightFoot  -19.3248 -0.00863305 1.74965
RightToes  2.32829e-010 0 -3.6325e-017
Spine  1.66274 -0.535676 8.38312
Spine1  10.3148 0.153388 -1.39114
HEad  4.78644 4.60554 -3.54578
LeftShoulder1  9.16734 -12.2942 -50.6459
LeftArm  -25.3457 6.76567 -30.7158
LeftForeArm  -16.9053 5.28636 1.14793
LeftHand  -0.244104 0.0205437 5.32207
RightShoulder  7.78318 10.7909 47.6306
RightArm  -14.4628 -7.43925 31.1533
RightForeArm  7.55386 1.08732 4.759
RightHand  -0.0520738 -4.43497 -3.8198
LeftUpLeg  -16.4284 6.53424 2.08077
LeftLeg  41.3092 8.68079 8.46726
LeftFoot  -8.73349 0.106808 -2.41322
LeftToes  -2.63786e-011 3.77076e-011 -4.2586e-012
